<?xml version="1.0" encoding="UTF-8" standalone="no"?>
<!DOCTYPE svg PUBLIC "-//W3C//DTD SVG 1.1//EN" "http://www.w3.org/Graphics/SVG/1.1/DTD/svg11.dtd">
<svg width="100%" height="100%" viewBox="0 0 14 24" version="1.1" xmlns="http://www.w3.org/2000/svg" xmlns:xlink="http://www.w3.org/1999/xlink" xml:space="preserve" style="fill-rule:evenodd;clip-rule:evenodd;stroke-linejoin:round;stroke-miterlimit:1.41421;">
    <g id="Scroll" transform="matrix(1,0,0,1,-677.98,-6315)">
        <path id="Arrow-Down-Icon" d="M690.261,6331.3L684.98,6336.58L679.699,6331.3C679.304,6330.9 678.662,6330.9 678.266,6331.3C677.87,6331.69 677.87,6332.33 678.266,6332.73L684.242,6338.7C684.446,6338.91 684.714,6339.01 684.98,6339C685.247,6339.01 685.515,6338.91 685.718,6338.7L691.695,6332.73C692.09,6332.33 692.09,6331.69 691.695,6331.3C691.299,6330.9 690.657,6330.9 690.261,6331.3Z" style="fill:white;"/>
        <path id="Arrow-Down-Icon1" d="M690.261,6323.3L684.98,6328.57L679.699,6323.3C679.304,6322.9 678.662,6322.9 678.266,6323.3C677.87,6323.69 677.87,6324.33 678.266,6324.73L684.242,6330.7C684.446,6330.91 684.714,6331.01 684.98,6331C685.247,6331.01 685.515,6330.91 685.718,6330.7L691.695,6324.73C692.09,6324.33 692.09,6323.69 691.695,6323.3C691.299,6322.9 690.657,6322.9 690.261,6323.3Z" style="fill:white;fill-opacity:0.701961;"/>
        <path id="Arrow-Down-Icon2" d="M690.261,6315.3L684.98,6320.58L679.699,6315.3C679.304,6314.9 678.662,6314.9 678.266,6315.3C677.87,6315.69 677.87,6316.33 678.266,6316.73L684.242,6322.7C684.446,6322.91 684.714,6323.01 684.98,6323C685.247,6323.01 685.515,6322.91 685.718,6322.7L691.695,6316.73C692.09,6316.33 692.09,6315.69 691.695,6315.3C691.299,6314.9 690.657,6314.9 690.261,6315.3Z" style="fill:white;fill-opacity:0.4;"/>
    </g>
</svg>
