<?xml version="1.0" encoding="UTF-8" standalone="no"?><!DOCTYPE svg PUBLIC "-//W3C//DTD SVG 1.1//EN" "http://www.w3.org/Graphics/SVG/1.1/DTD/svg11.dtd"><svg width="100%" height="100%" viewBox="0 0 50 50" version="1.1" xmlns="http://www.w3.org/2000/svg" xmlns:xlink="http://www.w3.org/1999/xlink" xml:space="preserve" style="fill-rule:evenodd;clip-rule:evenodd;stroke-linejoin:round;stroke-miterlimit:1.41421;"><circle cx="25.095" cy="24.954" r="23.409" style="fill:#333;"/><path d="M26.67,38.12c-3.816,0 -7.008,-1.284 -9.576,-3.852c-2.544,-2.568 -3.816,-5.772 -3.816,-9.612c0,-3.84 1.272,-7.032 3.816,-9.576c2.544,-2.592 5.736,-3.888 9.576,-3.888c3.888,0 7.044,1.404 9.468,4.212l-2.376,2.304c-1.848,-2.232 -4.212,-3.348 -7.092,-3.348c-2.856,0 -5.244,0.96 -7.164,2.88c-1.896,1.896 -2.844,4.368 -2.844,7.416c0,3.048 0.948,5.52 2.844,7.416c1.92,1.92 4.308,2.88 7.164,2.88c3,0 5.604,-1.26 7.812,-3.78l2.412,2.34c-1.224,1.464 -2.724,2.598 -4.5,3.402c-1.776,0.804 -3.684,1.206 -5.724,1.206Z" style="fill:#fff;fill-rule:nonzero;"/></svg>