<?xml version="1.0" encoding="UTF-8" standalone="no"?><!DOCTYPE svg PUBLIC "-//W3C//DTD SVG 1.1//EN" "http://www.w3.org/Graphics/SVG/1.1/DTD/svg11.dtd"><svg width="100%" height="100%" viewBox="0 0 272 150" version="1.1" xmlns="http://www.w3.org/2000/svg" xmlns:xlink="http://www.w3.org/1999/xlink" xml:space="preserve" style="fill-rule:evenodd;clip-rule:evenodd;stroke-linejoin:round;stroke-miterlimit:1.41421;"><path d="M116.48,53.51c0,12.77 -9.99,22.18 -22.25,22.18c-12.26,0 -22.25,-9.41 -22.25,-22.18c0,-12.86 9.99,-22.18 22.25,-22.18c12.26,0 22.25,9.32 22.25,22.18Zm-9.74,0c0,-7.98 -5.79,-13.44 -12.51,-13.44c-6.72,0 -12.51,5.46 -12.51,13.44c0,7.9 5.79,13.44 12.51,13.44c6.72,0 12.51,-5.55 12.51,-13.44Z" style="fill:#ea4335;fill-rule:nonzero;"/><path d="M164.48,53.51c0,12.77 -9.99,22.18 -22.25,22.18c-12.26,0 -22.25,-9.41 -22.25,-22.18c0,-12.85 9.99,-22.18 22.25,-22.18c12.26,0 22.25,9.32 22.25,22.18Zm-9.74,0c0,-7.98 -5.79,-13.44 -12.51,-13.44c-6.72,0 -12.51,5.46 -12.51,13.44c0,7.9 5.79,13.44 12.51,13.44c6.72,0 12.51,-5.55 12.51,-13.44Z" style="fill:#fbbc05;fill-rule:nonzero;"/><path d="M210.48,32.67l0,39.82c0,16.38 -9.66,23.07 -21.08,23.07c-10.75,0 -17.22,-7.19 -19.66,-13.07l8.48,-3.53c1.51,3.61 5.21,7.87 11.17,7.87c7.31,0 11.84,-4.51 11.84,-13l0,-3.19l-0.34,0c-2.18,2.69 -6.38,5.04 -11.68,5.04c-11.09,0 -21.25,-9.66 -21.25,-22.09c0,-12.52 10.16,-22.26 21.25,-22.26c5.29,0 9.49,2.35 11.68,4.96l0.34,0l0,-3.61l9.25,0l0,-0.01Zm-8.56,20.92c0,-7.81 -5.21,-13.52 -11.84,-13.52c-6.72,0 -12.35,5.71 -12.35,13.52c0,7.73 5.63,13.36 12.35,13.36c6.63,0 11.84,-5.63 11.84,-13.36Z" style="fill:#4285f4;fill-rule:nonzero;"/><rect x="216.23" y="9.33" width="9.5" height="65" style="fill:#34a853;fill-rule:nonzero;"/><path d="M262.75,60.81l7.56,5.04c-2.44,3.61 -8.32,9.83 -18.48,9.83c-12.6,0 -22.01,-9.74 -22.01,-22.18c0,-13.19 9.49,-22.18 20.92,-22.18c11.51,0 17.14,9.16 18.98,14.11l1.01,2.52l-29.65,12.28c2.27,4.45 5.8,6.72 10.75,6.72c4.96,0 8.4,-2.44 10.92,-6.14Zm-23.27,-7.98l19.82,-8.23c-1.09,-2.77 -4.37,-4.7 -8.23,-4.7c-4.95,0 -11.84,4.37 -11.59,12.93l0,0Z" style="fill:#ea4335;fill-rule:nonzero;"/><path d="M36.02,47.74l0,-9.41l31.71,0c0.31,1.64 0.47,3.58 0.47,5.68c0,7.06 -1.93,15.79 -8.15,22.01c-6.05,6.3 -13.78,9.66 -24.02,9.66c-18.98,0 -34.94,-15.46 -34.94,-34.44c0,-18.98 15.96,-34.44 34.94,-34.44c10.5,0 17.98,4.12 23.6,9.49l-6.64,6.64c-4.03,-3.78 -9.49,-6.72 -16.97,-6.72c-13.86,0 -24.7,11.17 -24.7,25.03c0,13.86 10.84,25.03 24.7,25.03c8.99,0 14.11,-3.61 17.39,-6.89c2.66,-2.66 4.41,-6.46 5.1,-11.65l-22.49,0.01l0,0Z" style="fill:#4285f4;fill-rule:nonzero;"/><path d="M18.231,125.854c-4.233,0 -7.774,-1.425 -10.623,-4.273c-2.822,-2.849 -4.233,-6.403 -4.233,-10.663c0,-4.26 1.411,-7.801 4.233,-10.623c2.822,-2.875 6.363,-4.313 10.623,-4.313c4.313,0 7.814,1.557 10.503,4.672l-2.635,2.556c-2.05,-2.476 -4.673,-3.714 -7.868,-3.714c-3.168,0 -5.817,1.065 -7.947,3.195c-2.103,2.103 -3.155,4.846 -3.155,8.227c0,3.381 1.052,6.123 3.155,8.227c2.13,2.13 4.779,3.195 7.947,3.195c3.328,0 6.217,-1.398 8.666,-4.194l2.676,2.596c-1.358,1.624 -3.022,2.882 -4.992,3.774c-1.97,0.892 -4.087,1.338 -6.35,1.338Z" style="fill:#646464;fill-rule:nonzero;"/><path d="M49.821,125.215l-3.515,0l0,-2.716l-0.16,0c-0.559,0.959 -1.417,1.757 -2.575,2.396c-1.159,0.639 -2.363,0.959 -3.615,0.959c-2.396,0 -4.239,-0.686 -5.531,-2.057c-1.291,-1.371 -1.937,-3.321 -1.937,-5.85l0,-12.301l3.674,0l0,12.061c0.08,3.195 1.691,4.792 4.833,4.792c1.464,0 2.689,-0.592 3.674,-1.777c0.985,-1.185 1.477,-2.602 1.477,-4.253l0,-10.823l3.675,0l0,19.569Z" style="fill:#646464;fill-rule:nonzero;"/><path d="M69.07,119.784c0,1.704 -0.746,3.141 -2.237,4.313c-1.491,1.171 -3.368,1.757 -5.631,1.757c-1.97,0 -3.7,-0.513 -5.191,-1.538c-1.491,-1.025 -2.556,-2.376 -3.195,-4.053l3.274,-1.398c0.48,1.172 1.179,2.083 2.097,2.736c0.919,0.652 1.924,0.978 3.015,0.978c1.172,0 2.15,-0.253 2.936,-0.759c0.785,-0.506 1.178,-1.105 1.178,-1.797c0,-1.251 -0.959,-2.17 -2.876,-2.755l-3.354,-0.839c-3.808,-0.958 -5.711,-2.796 -5.711,-5.511c0,-1.784 0.725,-3.215 2.176,-4.293c1.451,-1.079 3.308,-1.618 5.571,-1.618c1.731,0 3.295,0.413 4.693,1.238c1.398,0.826 2.376,1.931 2.935,3.315l-3.275,1.358c-0.372,-0.825 -0.978,-1.471 -1.817,-1.937c-0.838,-0.466 -1.777,-0.699 -2.815,-0.699c-0.959,0 -1.817,0.24 -2.576,0.719c-0.759,0.479 -1.138,1.065 -1.138,1.757c0,1.118 1.051,1.917 3.155,2.396l2.955,0.759c3.887,0.959 5.831,2.915 5.831,5.871Z" style="fill:#646464;fill-rule:nonzero;"/><path d="M79.812,125.534c-1.597,0 -2.922,-0.492 -3.973,-1.477c-1.052,-0.985 -1.591,-2.356 -1.618,-4.114l0,-10.942l-3.434,0l0,-3.355l3.434,0l0,-5.99l3.674,0l0,5.99l4.793,0l0,3.355l-4.793,0l0,9.744c0,1.305 0.253,2.19 0.759,2.656c0.506,0.466 1.079,0.699 1.717,0.699c0.293,0 0.58,-0.033 0.859,-0.1c0.28,-0.067 0.539,-0.153 0.779,-0.26l1.158,3.275c-0.958,0.346 -2.077,0.519 -3.355,0.519Z" style="fill:#646464;fill-rule:nonzero;"/><path d="M84.884,115.431c0,-3.009 0.945,-5.498 2.836,-7.468c1.917,-1.971 4.326,-2.956 7.228,-2.956c2.902,0 5.298,0.985 7.189,2.956c1.916,1.97 2.875,4.459 2.875,7.468c0,3.035 -0.959,5.524 -2.875,7.468c-1.891,1.97 -4.287,2.955 -7.189,2.955c-2.902,0 -5.311,-0.985 -7.228,-2.955c-1.891,-1.971 -2.836,-4.46 -2.836,-7.468Zm3.674,0c0,2.103 0.613,3.807 1.837,5.111c1.225,1.305 2.743,1.957 4.553,1.957c1.81,0 3.328,-0.652 4.553,-1.957c1.224,-1.304 1.837,-3.008 1.837,-5.111c0,-2.077 -0.613,-3.768 -1.837,-5.072c-1.252,-1.331 -2.769,-1.997 -4.553,-1.997c-1.784,0 -3.301,0.666 -4.553,1.997c-1.224,1.304 -1.837,2.995 -1.837,5.072Z" style="fill:#646464;fill-rule:nonzero;"/><path d="M111.641,125.215l-3.674,0l0,-19.569l3.515,0l0,2.716l0.159,0c0.559,-0.959 1.418,-1.757 2.576,-2.396c1.158,-0.639 2.31,-0.959 3.455,-0.959c1.437,0 2.702,0.333 3.793,0.999c1.092,0.665 1.891,1.584 2.397,2.755c1.624,-2.502 3.873,-3.754 6.749,-3.754c2.263,0 4.007,0.693 5.231,2.077c1.225,1.384 1.837,3.355 1.837,5.911l0,12.22l-3.674,0l0,-11.661c0,-1.837 -0.332,-3.162 -0.998,-3.974c-0.666,-0.812 -1.784,-1.218 -3.355,-1.218c-1.411,0 -2.595,0.599 -3.554,1.797c-0.958,1.198 -1.438,2.609 -1.438,4.233l0,10.823l-3.674,0l0,-11.661c0,-1.837 -0.333,-3.162 -0.998,-3.974c-0.666,-0.812 -1.784,-1.218 -3.355,-1.218c-1.411,0 -2.596,0.599 -3.554,1.797c-0.959,1.198 -1.438,2.609 -1.438,4.233l0,10.823Z" style="fill:#646464;fill-rule:nonzero;"/><path d="M167.871,117.587c0,2.503 -0.919,4.513 -2.756,6.03c-1.863,1.491 -4.126,2.237 -6.789,2.237c-2.369,0 -4.459,-0.692 -6.27,-2.077c-1.81,-1.384 -3.061,-3.275 -3.754,-5.671l3.515,-1.437c0.239,0.852 0.572,1.624 0.998,2.316c0.426,0.692 0.925,1.284 1.498,1.777c0.572,0.493 1.204,0.879 1.897,1.158c0.692,0.28 1.424,0.42 2.196,0.42c1.677,0 3.049,-0.433 4.114,-1.298c1.065,-0.866 1.597,-2.017 1.597,-3.455c0,-1.198 -0.439,-2.223 -1.318,-3.075c-0.825,-0.825 -2.369,-1.624 -4.632,-2.396c-2.29,-0.825 -3.714,-1.385 -4.274,-1.677c-3.035,-1.545 -4.552,-3.821 -4.552,-6.829c0,-2.104 0.838,-3.901 2.516,-5.392c1.704,-1.491 3.794,-2.236 6.27,-2.236c2.183,0 4.073,0.559 5.67,1.677c1.598,1.092 2.663,2.463 3.195,4.114l-3.434,1.437c-0.32,-1.065 -0.952,-1.95 -1.897,-2.656c-0.945,-0.705 -2.097,-1.058 -3.455,-1.058c-1.437,0 -2.649,0.4 -3.634,1.198c-0.985,0.746 -1.477,1.718 -1.477,2.916c0,0.985 0.386,1.837 1.158,2.555c0.852,0.719 2.702,1.571 5.551,2.556c2.902,0.985 4.972,2.19 6.21,3.615c1.238,1.424 1.857,3.174 1.857,5.251Z" style="fill:#646464;fill-rule:nonzero;"/><path d="M180.451,125.854c-2.876,0 -5.245,-0.985 -7.109,-2.955c-1.864,-1.971 -2.795,-4.46 -2.795,-7.468c0,-2.982 0.905,-5.465 2.715,-7.448c1.811,-1.984 4.127,-2.976 6.949,-2.976c2.902,0 5.212,0.939 6.929,2.816c1.717,1.877 2.576,4.506 2.576,7.887l-0.04,0.4l-15.375,0c0.053,1.916 0.692,3.461 1.917,4.632c1.224,1.172 2.689,1.757 4.392,1.757c2.343,0 4.18,-1.171 5.512,-3.514l3.274,1.597c-0.878,1.651 -2.096,2.942 -3.654,3.874c-1.557,0.932 -3.321,1.398 -5.291,1.398Zm-5.871,-12.78l11.222,0c-0.106,-1.357 -0.659,-2.482 -1.657,-3.374c-0.999,-0.892 -2.336,-1.338 -4.014,-1.338c-1.384,0 -2.576,0.426 -3.574,1.278c-0.998,0.852 -1.657,1.997 -1.977,3.434Z" style="fill:#646464;fill-rule:nonzero;"/><path d="M195.946,119.225c0,0.958 0.406,1.757 1.218,2.396c0.812,0.639 1.764,0.958 2.855,0.958c1.545,0 2.922,-0.572 4.134,-1.717c1.211,-1.145 1.817,-2.489 1.817,-4.034c-1.145,-0.905 -2.743,-1.357 -4.793,-1.357c-1.49,0 -2.735,0.359 -3.734,1.078c-0.998,0.719 -1.497,1.611 -1.497,2.676Zm4.752,-14.218c2.716,0 4.859,0.726 6.43,2.177c1.571,1.451 2.356,3.441 2.356,5.97l0,12.061l-3.514,0l0,-2.716l-0.16,0c-1.518,2.237 -3.541,3.355 -6.07,3.355c-2.157,0 -3.961,-0.639 -5.412,-1.917c-1.451,-1.278 -2.176,-2.875 -2.176,-4.792c0,-2.024 0.765,-3.635 2.296,-4.833c1.531,-1.198 3.575,-1.797 6.13,-1.797c2.184,0 3.981,0.4 5.392,1.198l0,-0.838c0,-1.278 -0.506,-2.363 -1.518,-3.255c-1.012,-0.892 -2.196,-1.338 -3.554,-1.338c-2.05,0 -3.674,0.865 -4.872,2.596l-3.235,-2.037c1.784,-2.556 4.419,-3.834 7.907,-3.834Z" style="fill:#646464;fill-rule:nonzero;"/><path d="M217.312,125.215l-3.675,0l0,-19.569l3.515,0l0,3.195l0.16,0c0.372,-1.038 1.138,-1.923 2.296,-2.656c1.158,-0.732 2.296,-1.098 3.414,-1.098c1.065,0 1.971,0.16 2.716,0.479l-1.118,3.555c-0.453,-0.187 -1.172,-0.28 -2.157,-0.28c-1.384,0 -2.589,0.559 -3.614,1.677c-1.025,1.119 -1.537,2.423 -1.537,3.914l0,10.783Z" style="fill:#646464;fill-rule:nonzero;"/><path d="M235.882,125.854c-2.902,0 -5.312,-0.985 -7.229,-2.955c-1.89,-2.024 -2.835,-4.513 -2.835,-7.468c0,-3.009 0.945,-5.498 2.835,-7.468c1.917,-1.971 4.327,-2.956 7.229,-2.956c1.997,0 3.74,0.5 5.231,1.498c1.491,0.998 2.609,2.376 3.355,4.133l-3.355,1.398c-1.038,-2.449 -2.862,-3.674 -5.471,-3.674c-1.677,0 -3.128,0.679 -4.353,2.037c-1.198,1.358 -1.797,3.035 -1.797,5.032c0,1.996 0.599,3.674 1.797,5.032c1.225,1.357 2.676,2.036 4.353,2.036c2.689,0 4.579,-1.224 5.671,-3.674l3.275,1.398c-0.719,1.757 -1.844,3.135 -3.375,4.133c-1.531,0.999 -3.308,1.498 -5.331,1.498Z" style="fill:#646464;fill-rule:nonzero;"/><path d="M247.783,96.621l3.674,0l0,9.025l-0.16,2.716l0.16,0c0.559,-0.959 1.417,-1.757 2.576,-2.396c1.158,-0.639 2.362,-0.959 3.614,-0.959c2.396,0 4.24,0.686 5.531,2.057c1.291,1.371 1.937,3.321 1.937,5.851l0,12.3l-3.674,0l0,-11.582c0,-3.514 -1.558,-5.271 -4.673,-5.271c-1.491,0 -2.749,0.619 -3.774,1.857c-1.025,1.238 -1.537,2.682 -1.537,4.333l0,10.663l-3.674,0l0,-28.594Z" style="fill:#646464;fill-rule:nonzero;"/></svg>