<?xml version="1.0" encoding="UTF-8" standalone="no"?><!DOCTYPE svg PUBLIC "-//W3C//DTD SVG 1.1//EN" "http://www.w3.org/Graphics/SVG/1.1/DTD/svg11.dtd"><svg width="100%" height="100%" viewBox="0 0 90 90" version="1.1" xmlns="http://www.w3.org/2000/svg" xmlns:xlink="http://www.w3.org/1999/xlink" xml:space="preserve" style="fill-rule:evenodd;clip-rule:evenodd;stroke-linecap:round;stroke-linejoin:round;stroke-miterlimit:1.5;"><path d="M72.859,12.021c0,-3.041 -2.469,-5.51 -5.509,-5.51l-44.077,0c-3.041,0 -5.51,2.469 -5.51,5.51l0,64.737c0,3.041 2.469,5.51 5.51,5.51l44.077,0c3.04,0 5.509,-2.469 5.509,-5.51l0,-64.737Z" style="fill:#fff;"/><clipPath id="_clip1"><path d="M72.859,12.021c0,-3.041 -2.469,-5.51 -5.509,-5.51l-44.077,0c-3.041,0 -5.51,2.469 -5.51,5.51l0,64.737c0,3.041 2.469,5.51 5.51,5.51l44.077,0c3.04,0 5.509,-2.469 5.509,-5.51l0,-64.737Z"/></clipPath><g clip-path="url(#_clip1)"><path d="M73.041,12.278c0,-1.21 -0.982,-2.192 -2.192,-2.192l-47.139,0c-1.21,0 -2.192,0.982 -2.192,2.192c0,1.21 0.982,2.192 2.192,2.192l47.139,0c1.21,0 2.192,-0.982 2.192,-2.192Z" style="fill:#232323;"/><path d="M52.017,20.651c0,-1.209 -0.982,-2.192 -2.192,-2.192l-26.124,0c-1.21,0 -2.192,0.983 -2.192,2.192c0,1.21 0.982,2.192 2.192,2.192l26.124,0c1.21,0 2.192,-0.982 2.192,-2.192Z" style="fill:#c4c4c4;"/><path d="M70.154,20.651c0,-1.209 -0.982,-2.192 -2.192,-2.192l-12.665,0c-1.21,0 -2.192,0.983 -2.192,2.192c0,1.21 0.982,2.192 2.192,2.192l12.665,0c1.21,0 2.192,-0.982 2.192,-2.192Z" style="fill:#c4c4c4;"/><path d="M70.154,26.57c0,-1.21 -0.982,-2.192 -2.192,-2.192l-17.725,0c-1.21,0 -2.192,0.982 -2.192,2.192c0,1.21 0.982,2.192 2.192,2.192l17.725,0c1.21,0 2.192,-0.982 2.192,-2.192Z" style="fill:#c4c4c4;"/><path d="M46.643,26.57c0,-1.21 -0.982,-2.192 -2.192,-2.192l-9.22,0c-1.21,0 -2.192,0.982 -2.192,2.192c0,1.21 0.982,2.192 2.192,2.192l9.22,0c1.21,0 2.192,-0.982 2.192,-2.192Z" style="fill:#c4c4c4;"/><path d="M31.859,26.57c0,-1.21 -0.982,-2.192 -2.192,-2.192l-5.613,0c-1.209,0 -2.192,0.982 -2.192,2.192c0,1.21 0.983,2.192 2.192,2.192l5.613,0c1.21,0 2.192,-0.982 2.192,-2.192Z" style="fill:#c4c4c4;"/><path d="M39.647,39.57c0,1.21 0.982,2.192 2.191,2.192l26.124,0c1.21,0 2.192,-0.982 2.192,-2.192c0,-1.21 -0.982,-2.192 -2.192,-2.192l-26.124,0c-1.209,0 -2.191,0.982 -2.191,2.192Z" style="fill:#c4c4c4;"/><path d="M21.509,39.57c0,1.21 0.982,2.192 2.192,2.192l12.665,0c1.21,0 2.192,-0.982 2.192,-2.192c0,-1.21 -0.982,-2.192 -2.192,-2.192l-12.665,0c-1.21,0 -2.192,0.982 -2.192,2.192Z" style="fill:#c4c4c4;"/><path d="M21.509,33.651c0,1.21 0.982,2.192 2.192,2.192l17.726,0c1.209,0 2.192,-0.982 2.192,-2.192c0,-1.209 -0.983,-2.192 -2.192,-2.192l-17.726,0c-1.21,0 -2.192,0.983 -2.192,2.192Z" style="fill:#c4c4c4;"/><path d="M45.021,33.651c0,1.21 0.982,2.192 2.192,2.192l9.219,0c1.21,0 2.192,-0.982 2.192,-2.192c0,-1.209 -0.982,-2.192 -2.192,-2.192l-9.219,0c-1.21,0 -2.192,0.983 -2.192,2.192Z" style="fill:#c4c4c4;"/><path d="M59.804,33.651c0,1.21 0.982,2.192 2.192,2.192l5.613,0c1.21,0 2.192,-0.982 2.192,-2.192c0,-1.209 -0.982,-2.192 -2.192,-2.192l-5.613,0c-1.21,0 -2.192,0.983 -2.192,2.192Z" style="fill:#c4c4c4;"/><path d="M52.017,52.57c0,1.21 -0.982,2.192 -2.192,2.192l-26.124,0c-1.21,0 -2.192,-0.982 -2.192,-2.192c0,-1.21 0.982,-2.192 2.192,-2.192l26.124,0c1.21,0 2.192,0.982 2.192,2.192Z" style="fill:#c4c4c4;"/><path d="M70.154,52.57c0,1.21 -0.982,2.192 -2.192,2.192l-12.665,0c-1.21,0 -2.192,-0.982 -2.192,-2.192c0,-1.21 0.982,-2.192 2.192,-2.192l12.665,0c1.21,0 2.192,0.982 2.192,2.192Z" style="fill:#c4c4c4;"/><path d="M70.154,46.651c0,1.21 -0.982,2.192 -2.192,2.192l-17.725,0c-1.21,0 -2.192,-0.982 -2.192,-2.192c0,-1.209 0.982,-2.192 2.192,-2.192l17.725,0c1.21,0 2.192,0.983 2.192,2.192Z" style="fill:#c4c4c4;"/><path d="M46.643,46.651c0,1.21 -0.982,2.192 -2.192,2.192l-9.22,0c-1.21,0 -2.192,-0.982 -2.192,-2.192c0,-1.209 0.982,-2.192 2.192,-2.192l9.22,0c1.21,0 2.192,0.983 2.192,2.192Z" style="fill:#c4c4c4;"/><path d="M31.859,46.651c0,1.21 -0.982,2.192 -2.192,2.192l-5.613,0c-1.209,0 -2.192,-0.982 -2.192,-2.192c0,-1.209 0.983,-2.192 2.192,-2.192l5.613,0c1.21,0 2.192,0.983 2.192,2.192Z" style="fill:#c4c4c4;"/><path d="M52.017,65.57c0,1.21 -0.982,2.192 -2.192,2.192l-26.124,0c-1.21,0 -2.192,-0.982 -2.192,-2.192c0,-1.21 0.982,-2.192 2.192,-2.192l26.124,0c1.21,0 2.192,0.982 2.192,2.192Z" style="fill:#c4c4c4;"/><path d="M70.154,65.57c0,1.21 -0.982,2.192 -2.192,2.192l-12.665,0c-1.21,0 -2.192,-0.982 -2.192,-2.192c0,-1.21 0.982,-2.192 2.192,-2.192l12.665,0c1.21,0 2.192,0.982 2.192,2.192Z" style="fill:#c4c4c4;"/><path d="M70.154,59.651c0,1.21 -0.982,2.192 -2.192,2.192l-17.725,0c-1.21,0 -2.192,-0.982 -2.192,-2.192c0,-1.209 0.982,-2.192 2.192,-2.192l17.725,0c1.21,0 2.192,0.983 2.192,2.192Z" style="fill:#c4c4c4;"/><path d="M46.643,59.651c0,1.21 -0.982,2.192 -2.192,2.192l-9.22,0c-1.21,0 -2.192,-0.982 -2.192,-2.192c0,-1.209 0.982,-2.192 2.192,-2.192l9.22,0c1.21,0 2.192,0.983 2.192,2.192Z" style="fill:#c4c4c4;"/><path d="M31.859,59.651c0,1.21 -0.982,2.192 -2.192,2.192l-5.613,0c-1.209,0 -2.192,-0.982 -2.192,-2.192c0,-1.209 0.983,-2.192 2.192,-2.192l5.613,0c1.21,0 2.192,0.983 2.192,2.192Z" style="fill:#c4c4c4;"/><path d="M21.862,72.651c0,1.21 0.983,2.192 2.192,2.192l17.726,0c1.21,0 2.192,-0.982 2.192,-2.192c0,-1.209 -0.982,-2.192 -2.192,-2.192l-17.726,0c-1.209,0 -2.192,0.983 -2.192,2.192Z" style="fill:#c4c4c4;"/><path d="M45.374,72.651c0,1.21 0.982,2.192 2.192,2.192l9.22,0c1.21,0 2.192,-0.982 2.192,-2.192c0,-1.209 -0.982,-2.192 -2.192,-2.192l-9.22,0c-1.21,0 -2.192,0.983 -2.192,2.192Z" style="fill:#c4c4c4;"/><path d="M60.157,72.651c0,1.21 0.982,2.192 2.192,2.192l5.613,0c1.21,0 2.192,-0.982 2.192,-2.192c0,-1.209 -0.982,-2.192 -2.192,-2.192l-5.613,0c-1.21,0 -2.192,0.983 -2.192,2.192Z" style="fill:#c4c4c4;"/></g><path d="M72.859,12.021c0,-3.041 -2.469,-5.51 -5.509,-5.51l-44.077,0c-3.041,0 -5.51,2.469 -5.51,5.51l0,64.737c0,3.041 2.469,5.51 5.51,5.51l44.077,0c3.04,0 5.509,-2.469 5.509,-5.51l0,-64.737Z" style="fill:none;stroke:#000;stroke-width:2px;"/><path d="M72.834,8.85c0,-1.276 -1.036,-2.311 -2.311,-2.311l-18.492,0c-1.275,0 -2.311,1.035 -2.311,2.311l0,18.491c0,1.276 1.036,2.312 2.311,2.312l18.492,0c1.275,0 2.311,-1.036 2.311,-2.312l0,-18.491Z" style="fill:#fff;stroke:#000;stroke-width:2px;"/><path d="M87.654,16.868l-25.348,-25.347l-12.965,12.966l25.347,25.347l12.966,-12.966Z" style="fill:#fff;"/><path d="M72.823,28.891l-22.609,-22.393" style="fill:none;stroke:#000;stroke-width:2px;"/></svg>