<?xml version="1.0" encoding="UTF-8" standalone="no"?><!DOCTYPE svg PUBLIC "-//W3C//DTD SVG 1.1//EN" "http://www.w3.org/Graphics/SVG/1.1/DTD/svg11.dtd"><svg width="100%" height="100%" viewBox="0 0 2000 500" version="1.1" xmlns="http://www.w3.org/2000/svg" xmlns:xlink="http://www.w3.org/1999/xlink" xml:space="preserve" style="fill-rule:evenodd;clip-rule:evenodd;stroke-linejoin:round;stroke-miterlimit:1.41421;"><g transform="matrix(1,0,0,1,-66.9264,237.214)"><clipPath id="_clip1"><path d="M456.754,-25.42l0,-125.391c0,-33.984 19.336,-50.976 58.008,-50.976c38.672,0 58.008,16.992 58.008,50.976l0,293.555c0,33.984 -19.336,50.976 -58.008,50.976c-21.484,0 -38.476,-7.421 -50.976,-22.265l-130.078,-154.688l0,125.977c0,33.984 -19.336,50.976 -58.008,50.976c-38.672,0 -58.008,-16.992 -58.008,-50.976l0,-293.555c0,-33.789 19.336,-50.781 58.008,-50.976c24.804,-0.196 42.578,7.812 53.32,24.023l127.734,152.344Z" clip-rule="nonzero"/></clipPath><g clip-path="url(#_clip1)"><path d="M456.754,-25.42l0,-125.391c0,-33.984 19.336,-50.976 58.008,-50.976c38.672,0 58.008,16.992 58.008,50.976l0,293.555c0,33.984 -19.336,50.976 -58.008,50.976c-21.484,0 -38.476,-7.421 -50.976,-22.265l-130.078,-154.688l0,125.977c0,33.984 -19.336,50.976 -58.008,50.976c-38.672,0 -58.008,-16.992 -58.008,-50.976l0,-293.555c0,-33.789 19.336,-50.781 58.008,-50.976c24.804,-0.196 42.578,7.812 53.32,24.023l127.734,152.344Z" style="fill:#28b3ca;fill-rule:nonzero;"/><g transform="matrix(1.0171,0,0,1.14778,149.947,-300.668)"><rect x="241.235" y="76.938" width="185.386" height="367.753" style="fill:#3cd8e7;"/></g></g></g><g transform="matrix(1,0,0,1,-109.839,70.7871)"><clipPath id="_clip2"><path d="M666.166,306.049c0,6.912 2.928,12.672 8.784,17.28c5.856,4.608 12.72,6.912 20.592,6.912c11.136,0 21.072,-4.128 29.808,-12.384c8.736,-8.256 13.104,-17.952 13.104,-29.088c-8.256,-6.528 -19.776,-9.792 -34.56,-9.792c-10.752,0 -19.728,2.592 -26.928,7.776c-7.2,5.184 -10.8,11.616 -10.8,19.296Zm34.272,-102.528c19.584,0 35.04,5.232 46.368,15.696c11.328,10.464 16.992,24.816 16.992,43.056l0,86.976l-25.344,0l0,-19.584l-1.152,0c-10.944,16.128 -25.536,24.192 -43.776,24.192c-15.552,0 -28.56,-4.608 -39.024,-13.824c-10.464,-9.216 -15.696,-20.736 -15.696,-34.56c0,-14.592 5.52,-26.208 16.56,-34.848c11.04,-8.64 25.776,-12.96 44.208,-12.96c15.744,0 28.704,2.88 38.88,8.64l0,-6.048c0,-9.216 -3.648,-17.04 -10.944,-23.472c-7.296,-6.432 -15.84,-9.648 -25.632,-9.648c-14.784,0 -26.496,6.24 -35.136,18.72l-23.328,-14.688c12.864,-18.432 31.872,-27.648 57.024,-27.648Zm93.312,4.608l25.344,0l0,19.584l1.152,0c4.032,-6.912 10.224,-12.672 18.576,-17.28c8.352,-4.608 17.04,-6.912 26.064,-6.912c17.28,0 30.576,4.944 39.888,14.832c9.312,9.888 13.968,23.952 13.968,42.192l0,88.704l-26.496,0l0,-86.976c-0.576,-23.04 -12.192,-34.56 -34.848,-34.56c-10.56,0 -19.392,4.272 -26.496,12.816c-7.104,8.544 -10.656,18.768 -10.656,30.672l0,78.048l-26.496,0l0,-141.12Zm148.032,70.56c0,-21.696 6.816,-39.648 20.448,-53.856c13.824,-14.208 31.2,-21.312 52.128,-21.312c20.928,0 38.208,7.104 51.84,21.312c13.824,14.208 20.736,32.16 20.736,53.856c0,21.888 -6.912,39.84 -20.736,53.856c-13.632,14.208 -30.912,21.312 -51.84,21.312c-20.928,0 -38.304,-7.104 -52.128,-21.312c-13.632,-14.208 -20.448,-32.16 -20.448,-53.856Zm26.496,0c0,15.168 4.416,27.456 13.248,36.864c8.832,9.408 19.776,14.112 32.832,14.112c13.056,0 24,-4.704 32.832,-14.112c8.832,-9.408 13.248,-21.696 13.248,-36.864c0,-14.976 -4.416,-27.168 -13.248,-36.576c-9.024,-9.6 -19.968,-14.4 -32.832,-14.4c-12.864,0 -23.808,4.8 -32.832,14.4c-8.832,9.408 -13.248,21.6 -13.248,36.576Zm166.464,70.56l-26.496,0l0,-141.12l25.344,0l0,19.584l1.152,0c4.032,-6.912 10.224,-12.672 18.576,-17.28c8.352,-4.608 16.656,-6.912 24.912,-6.912c10.368,0 19.488,2.4 27.36,7.2c7.872,4.8 13.632,11.424 17.28,19.872c11.712,-18.048 27.936,-27.072 48.672,-27.072c16.32,0 28.896,4.992 37.728,14.976c8.832,9.984 13.248,24.192 13.248,42.624l0,88.128l-26.496,0l0,-84.096c0,-13.248 -2.4,-22.8 -7.2,-28.656c-4.8,-5.856 -12.864,-8.784 -24.192,-8.784c-10.176,0 -18.72,4.32 -25.632,12.96c-6.912,8.64 -10.368,18.816 -10.368,30.528l0,78.048l-26.496,0l0,-84.096c0,-13.248 -2.4,-22.8 -7.2,-28.656c-4.8,-5.856 -12.864,-8.784 -24.192,-8.784c-10.176,0 -18.72,4.32 -25.632,12.96c-6.912,8.64 -10.368,18.816 -10.368,30.528l0,78.048Zm210.816,-70.56c0,-21.696 6.816,-39.648 20.448,-53.856c13.824,-14.208 31.2,-21.312 52.128,-21.312c20.928,0 38.208,7.104 51.84,21.312c13.824,14.208 20.736,32.16 20.736,53.856c0,21.888 -6.912,39.84 -20.736,53.856c-13.632,14.208 -30.912,21.312 -51.84,21.312c-20.928,0 -38.304,-7.104 -52.128,-21.312c-13.632,-14.208 -20.448,-32.16 -20.448,-53.856Zm26.496,0c0,15.168 4.416,27.456 13.248,36.864c8.832,9.408 19.776,14.112 32.832,14.112c13.056,0 24,-4.704 32.832,-14.112c8.832,-9.408 13.248,-21.696 13.248,-36.864c0,-14.976 -4.416,-27.168 -13.248,-36.576c-9.024,-9.6 -19.968,-14.4 -32.832,-14.4c-12.864,0 -23.808,4.8 -32.832,14.4c-8.832,9.408 -13.248,21.6 -13.248,36.576Zm194.4,72.864c-11.52,0 -21.072,-3.552 -28.656,-10.656c-7.584,-7.104 -11.472,-16.992 -11.664,-29.664l0,-78.912l-24.768,0l0,-24.192l24.768,0l0,-43.2l26.496,0l0,43.2l34.56,0l0,24.192l-34.56,0l0,70.272c0,9.408 1.824,15.792 5.472,19.152c3.648,3.36 7.776,5.04 12.384,5.04c2.112,0 4.176,-0.24 6.192,-0.72c2.016,-0.48 3.888,-1.104 5.616,-1.872l8.352,23.616c-6.912,2.496 -14.976,3.744 -24.192,3.744Zm81.792,-192.096c0,5.184 -1.824,9.6 -5.472,13.248c-3.648,3.648 -8.064,5.472 -13.248,5.472c-5.184,0 -9.6,-1.824 -13.248,-5.472c-3.648,-3.648 -5.472,-8.064 -5.472,-13.248c0,-5.184 1.824,-9.6 5.472,-13.248c3.648,-3.648 8.064,-5.472 13.248,-5.472c5.184,0 9.6,1.824 13.248,5.472c3.648,3.648 5.472,8.064 5.472,13.248Zm-5.472,48.672l0,141.12l-26.496,0l0,-141.12l26.496,0Zm25.056,70.56c0,-21.696 6.816,-39.648 20.448,-53.856c13.824,-14.208 31.2,-21.312 52.128,-21.312c20.928,0 38.208,7.104 51.84,21.312c13.824,14.208 20.736,32.16 20.736,53.856c0,21.888 -6.912,39.84 -20.736,53.856c-13.632,14.208 -30.912,21.312 -51.84,21.312c-20.928,0 -38.304,-7.104 -52.128,-21.312c-13.632,-14.208 -20.448,-32.16 -20.448,-53.856Zm26.496,0c0,15.168 4.416,27.456 13.248,36.864c8.832,9.408 19.776,14.112 32.832,14.112c13.056,0 24,-4.704 32.832,-14.112c8.832,-9.408 13.248,-21.696 13.248,-36.864c0,-14.976 -4.416,-27.168 -13.248,-36.576c-9.024,-9.6 -19.968,-14.4 -32.832,-14.4c-12.864,0 -23.808,4.8 -32.832,14.4c-8.832,9.408 -13.248,21.6 -13.248,36.576Zm139.968,-70.56l25.344,0l0,19.584l1.152,0c4.032,-6.912 10.224,-12.672 18.576,-17.28c8.352,-4.608 17.04,-6.912 26.064,-6.912c17.28,0 30.576,4.944 39.888,14.832c9.312,9.888 13.968,23.952 13.968,42.192l0,88.704l-26.496,0l0,-86.976c-0.576,-23.04 -12.192,-34.56 -34.848,-34.56c-10.56,0 -19.392,4.272 -26.496,12.816c-7.104,8.544 -10.656,18.768 -10.656,30.672l0,78.048l-26.496,0l0,-141.12Z" clip-rule="nonzero"/></clipPath><g clip-path="url(#_clip2)"><path d="M666.166,306.049c0,6.912 2.928,12.672 8.784,17.28c5.856,4.608 12.72,6.912 20.592,6.912c11.136,0 21.072,-4.128 29.808,-12.384c8.736,-8.256 13.104,-17.952 13.104,-29.088c-8.256,-6.528 -19.776,-9.792 -34.56,-9.792c-10.752,0 -19.728,2.592 -26.928,7.776c-7.2,5.184 -10.8,11.616 -10.8,19.296Zm34.272,-102.528c19.584,0 35.04,5.232 46.368,15.696c11.328,10.464 16.992,24.816 16.992,43.056l0,86.976l-25.344,0l0,-19.584l-1.152,0c-10.944,16.128 -25.536,24.192 -43.776,24.192c-15.552,0 -28.56,-4.608 -39.024,-13.824c-10.464,-9.216 -15.696,-20.736 -15.696,-34.56c0,-14.592 5.52,-26.208 16.56,-34.848c11.04,-8.64 25.776,-12.96 44.208,-12.96c15.744,0 28.704,2.88 38.88,8.64l0,-6.048c0,-9.216 -3.648,-17.04 -10.944,-23.472c-7.296,-6.432 -15.84,-9.648 -25.632,-9.648c-14.784,0 -26.496,6.24 -35.136,18.72l-23.328,-14.688c12.864,-18.432 31.872,-27.648 57.024,-27.648Z" style="fill:#28b3ca;fill-rule:nonzero;"/><path d="M793.75,208.129l25.344,0l0,19.584l1.152,0c4.032,-6.912 10.224,-12.672 18.576,-17.28c8.352,-4.608 17.04,-6.912 26.064,-6.912c17.28,0 30.576,4.944 39.888,14.832c9.312,9.888 13.968,23.952 13.968,42.192l0,88.704l-26.496,0l0,-86.976c-0.576,-23.04 -12.192,-34.56 -34.848,-34.56c-10.56,0 -19.392,4.272 -26.496,12.816c-7.104,8.544 -10.656,18.768 -10.656,30.672l0,78.048l-26.496,0l0,-141.12Z" style="fill:#28b3ca;fill-rule:nonzero;"/><path d="M941.782,278.689c0,-21.696 6.816,-39.648 20.448,-53.856c13.824,-14.208 31.2,-21.312 52.128,-21.312c20.928,0 38.208,7.104 51.84,21.312c13.824,14.208 20.736,32.16 20.736,53.856c0,21.888 -6.912,39.84 -20.736,53.856c-13.632,14.208 -30.912,21.312 -51.84,21.312c-20.928,0 -38.304,-7.104 -52.128,-21.312c-13.632,-14.208 -20.448,-32.16 -20.448,-53.856Zm26.496,0c0,15.168 4.416,27.456 13.248,36.864c8.832,9.408 19.776,14.112 32.832,14.112c13.056,0 24,-4.704 32.832,-14.112c8.832,-9.408 13.248,-21.696 13.248,-36.864c0,-14.976 -4.416,-27.168 -13.248,-36.576c-9.024,-9.6 -19.968,-14.4 -32.832,-14.4c-12.864,0 -23.808,4.8 -32.832,14.4c-8.832,9.408 -13.248,21.6 -13.248,36.576Z" style="fill:#28b3ca;fill-rule:nonzero;"/><path d="M1134.74,349.249l-26.496,0l0,-141.12l25.344,0l0,19.584l1.152,0c4.032,-6.912 10.224,-12.672 18.576,-17.28c8.352,-4.608 16.656,-6.912 24.912,-6.912c10.368,0 19.488,2.4 27.36,7.2c7.872,4.8 13.632,11.424 17.28,19.872c11.712,-18.048 27.936,-27.072 48.672,-27.072c16.32,0 28.896,4.992 37.728,14.976c8.832,9.984 13.248,24.192 13.248,42.624l0,88.128l-26.496,0l0,-84.096c0,-13.248 -2.4,-22.8 -7.2,-28.656c-4.8,-5.856 -12.864,-8.784 -24.192,-8.784c-10.176,0 -18.72,4.32 -25.632,12.96c-6.912,8.64 -10.368,18.816 -10.368,30.528l0,78.048l-26.496,0l0,-84.096c0,-13.248 -2.4,-22.8 -7.2,-28.656c-4.8,-5.856 -12.864,-8.784 -24.192,-8.784c-10.176,0 -18.72,4.32 -25.632,12.96c-6.912,8.64 -10.368,18.816 -10.368,30.528l0,78.048Z" style="fill:#28b3ca;fill-rule:nonzero;"/><path d="M1345.56,278.689c0,-21.696 6.816,-39.648 20.448,-53.856c13.824,-14.208 31.2,-21.312 52.128,-21.312c20.928,0 38.208,7.104 51.84,21.312c13.824,14.208 20.736,32.16 20.736,53.856c0,21.888 -6.912,39.84 -20.736,53.856c-13.632,14.208 -30.912,21.312 -51.84,21.312c-20.928,0 -38.304,-7.104 -52.128,-21.312c-13.632,-14.208 -20.448,-32.16 -20.448,-53.856Zm26.496,0c0,15.168 4.416,27.456 13.248,36.864c8.832,9.408 19.776,14.112 32.832,14.112c13.056,0 24,-4.704 32.832,-14.112c8.832,-9.408 13.248,-21.696 13.248,-36.864c0,-14.976 -4.416,-27.168 -13.248,-36.576c-9.024,-9.6 -19.968,-14.4 -32.832,-14.4c-12.864,0 -23.808,4.8 -32.832,14.4c-8.832,9.408 -13.248,21.6 -13.248,36.576Z" style="fill:#28b3ca;fill-rule:nonzero;"/><path d="M1566.45,351.553c-11.52,0 -21.072,-3.552 -28.656,-10.656c-7.584,-7.104 -11.472,-16.992 -11.664,-29.664l0,-78.912l-24.768,0l0,-24.192l24.768,0l0,-43.2l26.496,0l0,43.2l34.56,0l0,24.192l-34.56,0l0,70.272c0,9.408 1.824,15.792 5.472,19.152c3.648,3.36 7.776,5.04 12.384,5.04c2.112,0 4.176,-0.24 6.192,-0.72c2.016,-0.48 3.888,-1.104 5.616,-1.872l8.352,23.616c-6.912,2.496 -14.976,3.744 -24.192,3.744Z" style="fill:#28b3ca;fill-rule:nonzero;"/><path d="M1648.25,159.457c0,5.184 -1.824,9.6 -5.472,13.248c-3.648,3.648 -8.064,5.472 -13.248,5.472c-5.184,0 -9.6,-1.824 -13.248,-5.472c-3.648,-3.648 -5.472,-8.064 -5.472,-13.248c0,-5.184 1.824,-9.6 5.472,-13.248c3.648,-3.648 8.064,-5.472 13.248,-5.472c5.184,0 9.6,1.824 13.248,5.472c3.648,3.648 5.472,8.064 5.472,13.248Zm-5.472,48.672l0,141.12l-26.496,0l0,-141.12l26.496,0Z" style="fill:#28b3ca;fill-rule:nonzero;"/><path d="M1667.83,278.689c0,-21.696 6.816,-39.648 20.448,-53.856c13.824,-14.208 31.2,-21.312 52.128,-21.312c20.928,0 38.208,7.104 51.84,21.312c13.824,14.208 20.736,32.16 20.736,53.856c0,21.888 -6.912,39.84 -20.736,53.856c-13.632,14.208 -30.912,21.312 -51.84,21.312c-20.928,0 -38.304,-7.104 -52.128,-21.312c-13.632,-14.208 -20.448,-32.16 -20.448,-53.856Zm26.496,0c0,15.168 4.416,27.456 13.248,36.864c8.832,9.408 19.776,14.112 32.832,14.112c13.056,0 24,-4.704 32.832,-14.112c8.832,-9.408 13.248,-21.696 13.248,-36.864c0,-14.976 -4.416,-27.168 -13.248,-36.576c-9.024,-9.6 -19.968,-14.4 -32.832,-14.4c-12.864,0 -23.808,4.8 -32.832,14.4c-8.832,9.408 -13.248,21.6 -13.248,36.576Z" style="fill:#28b3ca;fill-rule:nonzero;"/><path d="M1834.29,208.129l25.344,0l0,19.584l1.152,0c4.032,-6.912 10.224,-12.672 18.576,-17.28c8.352,-4.608 17.04,-6.912 26.064,-6.912c17.28,0 30.576,4.944 39.888,14.832c9.312,9.888 13.968,23.952 13.968,42.192l0,88.704l-26.496,0l0,-86.976c-0.576,-23.04 -12.192,-34.56 -34.848,-34.56c-10.56,0 -19.392,4.272 -26.496,12.816c-7.104,8.544 -10.656,18.768 -10.656,30.672l0,78.048l-26.496,0l0,-141.12Z" style="fill:#28b3ca;fill-rule:nonzero;"/><g transform="matrix(0.077343,1.01416,-4.06017,0.309643,2311.67,-52.7243)"><rect x="241.235" y="76.938" width="185.386" height="367.753" style="fill:#3cd8e7;"/></g></g></g></svg>