<?xml version="1.0" encoding="UTF-8" standalone="no"?><!DOCTYPE svg PUBLIC "-//W3C//DTD SVG 1.1//EN" "http://www.w3.org/Graphics/SVG/1.1/DTD/svg11.dtd"><svg width="100%" height="100%" viewBox="0 0 500 500" version="1.1" xmlns="http://www.w3.org/2000/svg" xmlns:xlink="http://www.w3.org/1999/xlink" xml:space="preserve" style="fill-rule:evenodd;clip-rule:evenodd;stroke-linejoin:round;stroke-miterlimit:1.41421;"><g transform="matrix(1,0,0,1,-145.117,254.408)"><clipPath id="_clip1"><path d="M456.754,-25.42l0,-125.391c0,-33.984 19.336,-50.976 58.008,-50.976c38.672,0 58.008,16.992 58.008,50.976l0,293.555c0,33.984 -19.336,50.976 -58.008,50.976c-21.484,0 -38.476,-7.421 -50.976,-22.265l-130.078,-154.688l0,125.977c0,33.984 -19.336,50.976 -58.008,50.976c-38.672,0 -58.008,-16.992 -58.008,-50.976l0,-293.555c0,-33.789 19.336,-50.781 58.008,-50.976c24.804,-0.196 42.578,7.812 53.32,24.023l127.734,152.344Z" clip-rule="nonzero"/></clipPath><g clip-path="url(#_clip1)"><path d="M456.754,-25.42l0,-125.391c0,-33.984 19.336,-50.976 58.008,-50.976c38.672,0 58.008,16.992 58.008,50.976l0,293.555c0,33.984 -19.336,50.976 -58.008,50.976c-21.484,0 -38.476,-7.421 -50.976,-22.265l-130.078,-154.688l0,125.977c0,33.984 -19.336,50.976 -58.008,50.976c-38.672,0 -58.008,-16.992 -58.008,-50.976l0,-293.555c0,-33.789 19.336,-50.781 58.008,-50.976c24.804,-0.196 42.578,7.812 53.32,24.023l127.734,152.344Z" style="fill:#28b3ca;fill-rule:nonzero;"/><g transform="matrix(1.0171,0,0,1.14778,149.947,-300.668)"><rect x="241.235" y="76.938" width="185.386" height="367.753" style="fill:#3cd8e7;"/></g></g></g></svg>