<?xml version="1.0" encoding="UTF-8" standalone="no"?><!DOCTYPE svg PUBLIC "-//W3C//DTD SVG 1.1//EN" "http://www.w3.org/Graphics/SVG/1.1/DTD/svg11.dtd"><svg width="100%" height="100%" viewBox="0 0 90 90" version="1.1" xmlns="http://www.w3.org/2000/svg" xmlns:xlink="http://www.w3.org/1999/xlink" xml:space="preserve" style="fill-rule:evenodd;clip-rule:evenodd;stroke-linecap:round;stroke-linejoin:round;stroke-miterlimit:1.5;"><path d="M84.501,12.739c0,-4.371 -3.549,-7.92 -7.92,-7.92l-63.487,0c-4.371,0 -7.919,3.549 -7.919,7.92l0,63.359c0,4.371 3.548,7.919 7.919,7.919l63.487,0c4.371,0 7.92,-3.548 7.92,-7.919l0,-63.359Z" style="fill:#ebebeb;"/><clipPath id="_clip1"><path d="M84.501,12.739c0,-4.371 -3.549,-7.92 -7.92,-7.92l-63.487,0c-4.371,0 -7.919,3.549 -7.919,7.92l0,63.359c0,4.371 3.548,7.919 7.919,7.919l63.487,0c4.371,0 7.92,-3.548 7.92,-7.919l0,-63.359Z"/></clipPath><g clip-path="url(#_clip1)"><rect x="-0.548" y="-2.733" width="88.904" height="19.784" style="fill:#fff;"/><clipPath id="_clip2"><rect x="-0.548" y="-2.733" width="88.904" height="19.784"/></clipPath><g clip-path="url(#_clip2)"><path d="M43.435,17.862l-35.982,0l5.397,-9.777l25.188,0l5.397,9.777Z" style="fill:#ebebeb;stroke:#000;stroke-width:2px;"/><path d="M78.846,8.391c0,-0.381 -0.309,-0.69 -0.689,-0.69l-5.514,0c-0.38,0 -0.689,0.309 -0.689,0.69l0,5.513c0,0.381 0.309,0.689 0.689,0.689l5.514,0c0.38,0 0.689,-0.308 0.689,-0.689l0,-5.513Z" style="fill:#f93e3e;stroke:#000;stroke-width:2px;"/></g><rect x="-0.548" y="-2.733" width="88.904" height="19.784" style="fill:none;stroke:#000;stroke-width:2px;"/></g><path d="M84.501,12.739c0,-4.371 -3.549,-7.92 -7.92,-7.92l-63.487,0c-4.371,0 -7.919,3.549 -7.919,7.92l0,63.359c0,4.371 3.548,7.919 7.919,7.919l63.487,0c4.371,0 7.92,-3.548 7.92,-7.919l0,-63.359Z" style="fill:none;stroke:#000;stroke-width:2px;"/><g transform="matrix(0.0747676,0,0,0.0747676,15.1226,36.1269)"><clipPath id="_clip3"><path d="M456.754,-25.42l0,-125.391c0,-33.984 19.336,-50.976 58.008,-50.976c38.672,0 58.008,16.992 58.008,50.976l0,293.555c0,33.984 -19.336,50.976 -58.008,50.976c-21.484,0 -38.476,-7.421 -50.976,-22.265l-130.078,-154.688l0,125.977c0,33.984 -19.336,50.976 -58.008,50.976c-38.672,0 -58.008,-16.992 -58.008,-50.976l0,-293.555c0,-33.789 19.336,-50.781 58.008,-50.976c24.804,-0.196 42.578,7.812 53.32,24.023l127.734,152.344Z" clip-rule="nonzero"/></clipPath><g clip-path="url(#_clip3)"><text x="203.043px" y="195.478px" style="font-family:'Insaniburger';font-size:600px;fill:#28b3ca;">N</text><g transform="matrix(1.0171,0,0,1.14778,149.947,-300.668)"><rect x="241.235" y="76.938" width="185.386" height="367.753" style="fill:#3cd8e7;"/></g></g></g><path d="M58.857,60.955c0,-1.21 -0.982,-2.192 -2.192,-2.192l-22.072,0c-1.21,0 -2.192,0.982 -2.192,2.192c0,1.209 0.982,2.192 2.192,2.192l22.072,0c1.21,0 2.192,-0.983 2.192,-2.192Z" style="fill:#232323;"/><path d="M53.436,68.154c0,-1.21 -0.982,-2.192 -2.192,-2.192l-34.014,0c-1.21,0 -2.192,0.982 -2.192,2.192c0,1.21 0.982,2.192 2.192,2.192l34.014,0c1.21,0 2.192,-0.982 2.192,-2.192Z" style="fill:#c4c4c4;"/><path d="M76.265,68.154c0,-1.21 -0.982,-2.192 -2.192,-2.192l-17.075,0c-1.21,0 -2.192,0.982 -2.192,2.192c0,1.21 0.982,2.192 2.192,2.192l17.075,0c1.21,0 2.192,-0.982 2.192,-2.192Z" style="fill:#c4c4c4;"/><path d="M76.265,74.072c0,-1.209 -0.982,-2.192 -2.192,-2.192l-23.444,0c-1.21,0 -2.192,0.983 -2.192,2.192c0,1.21 0.982,2.192 2.192,2.192l23.444,0c1.21,0 2.192,-0.982 2.192,-2.192Z" style="fill:#c4c4c4;"/><path d="M46.672,74.072c0,-1.209 -0.982,-2.192 -2.192,-2.192l-12.738,0c-1.21,0 -2.192,0.983 -2.192,2.192c0,1.21 0.982,2.192 2.192,2.192l12.738,0c1.21,0 2.192,-0.982 2.192,-2.192Z" style="fill:#c4c4c4;"/><path d="M28.065,74.072c0,-1.209 -0.982,-2.192 -2.192,-2.192l-8.198,0c-1.21,0 -2.192,0.983 -2.192,2.192c0,1.21 0.982,2.192 2.192,2.192l8.198,0c1.21,0 2.192,-0.982 2.192,-2.192Z" style="fill:#c4c4c4;"/></svg>