<svg xmlns="http://www.w3.org/2000/svg" viewBox="0 0 24 24" width="48" height="48">
    <path d="M 9.75 3.375 C 8.7655371 3.3904512 7.579625 3.647 6.125 4.25 L 4.21875 10.84375 C 5.75975 10.20775 6.981 9.9285 8 9.9375 C 9.549 9.9475 10.64425 10.60025 11.65625 11.28125 L 13.5625 4.6875 C 12.5125 3.976875 11.390771 3.349248 9.75 3.375 z M 14.5625 5.375 L 12.65625 12 C 14.33125 13.136 16.3485 14.06725 20.0625 12.40625 L 21.96875 5.8125 C 18.09575 7.4115 16.2395 6.509 14.5625 5.375 z M 7.53125 11.1875 C 6.5474961 11.211213 5.356 11.46625 3.90625 12.0625 L 3.90625 12.09375 L 2 18.65625 C 5.881 17.04925 7.72425 17.994 9.40625 19.125 L 11.3125 12.46875 C 10.265 11.758125 9.1708398 11.147979 7.53125 11.1875 z M 12.34375 13.09375 L 10.4375 19.6875 C 12.1185 20.8285 13.96775 21.73 17.84375 20.125 L 19.6875 13.71875 C 15.7385 15.07275 14.02475 14.22575 12.34375 13.09375 z"/>
</svg>